<mxfile host="app.diagrams.net" modified="2023-08-05T05:28:07.530Z" agent="Mozilla/5.0 (Windows NT 10.0; Win64; x64; rv:109.0) Gecko/20100101 Firefox/116.0" etag="AQ2tag-YNtweg2sFGAMs" version="21.6.6" type="device">
  <diagram name="Page-1" id="b98fa263-6416-c6ec-5b7d-78bf54ef71d0">
    <mxGraphModel dx="1519" dy="757" grid="1" gridSize="10" guides="1" tooltips="1" connect="1" arrows="1" fold="1" page="1" pageScale="1.5" pageWidth="1169" pageHeight="826" background="none" math="0" shadow="0">
      <root>
        <mxCell id="0" style=";html=1;" />
        <mxCell id="1" style=";html=1;" parent="0" />
        <mxCell id="N0DhFaUQ2dvQvEvrO7Er-67" value="&lt;font color=&quot;#0f0f0f&quot;&gt;Hitman 3 Chunk Hierarchy&lt;/font&gt;" style="rounded=0;whiteSpace=wrap;html=1;fontSize=25;verticalAlign=top;align=left;fontStyle=1;labelBorderColor=none;spacingLeft=10;glass=1;sketch=0;shadow=0;fillColor=#f5f5f5;strokeColor=#666666;gradientColor=#b3b3b3;" parent="1" vertex="1">
          <mxGeometry x="400" y="20" width="880" height="1180" as="geometry" />
        </mxCell>
        <mxCell id="N0DhFaUQ2dvQvEvrO7Er-72" value="&lt;div&gt;Level 3&lt;br&gt;&lt;/div&gt;" style="rounded=0;whiteSpace=wrap;html=1;labelBorderColor=none;fontSize=25;align=left;verticalAlign=top;fontStyle=1;spacingLeft=13;labelBackgroundColor=none;fillColor=none;" parent="1" vertex="1">
          <mxGeometry x="430" y="350" width="850" height="850" as="geometry" />
        </mxCell>
        <mxCell id="N0DhFaUQ2dvQvEvrO7Er-71" value="&lt;div&gt;Level 2&lt;br&gt;&lt;/div&gt;" style="rounded=0;whiteSpace=wrap;html=1;labelBorderColor=none;fontSize=25;align=left;verticalAlign=top;fontStyle=1;spacingLeft=13;fillColor=none;" parent="1" vertex="1">
          <mxGeometry x="430" y="250" width="850" height="100" as="geometry" />
        </mxCell>
        <mxCell id="N0DhFaUQ2dvQvEvrO7Er-70" value="&lt;div&gt;Level 1&lt;br&gt;&lt;/div&gt;" style="rounded=0;whiteSpace=wrap;html=1;labelBorderColor=none;fontSize=25;align=left;verticalAlign=top;fontStyle=1;spacingLeft=13;fillColor=none;" parent="1" vertex="1">
          <mxGeometry x="430" y="170" width="850" height="80" as="geometry" />
        </mxCell>
        <mxCell id="N0DhFaUQ2dvQvEvrO7Er-69" value="&lt;div&gt;Level 0&lt;br&gt;&lt;/div&gt;" style="rounded=0;whiteSpace=wrap;html=1;labelBorderColor=none;fontSize=25;align=left;verticalAlign=top;fontStyle=1;spacingLeft=13;fillColor=none;" parent="1" vertex="1">
          <mxGeometry x="430" y="70" width="850" height="100" as="geometry" />
        </mxCell>
        <mxCell id="N0DhFaUQ2dvQvEvrO7Er-3" value="" style="edgeStyle=orthogonalEdgeStyle;rounded=0;orthogonalLoop=1;jettySize=auto;html=1;strokeWidth=4;" parent="1" source="N0DhFaUQ2dvQvEvrO7Er-2" target="N0DhFaUQ2dvQvEvrO7Er-1" edge="1">
          <mxGeometry relative="1" as="geometry" />
        </mxCell>
        <mxCell id="N0DhFaUQ2dvQvEvrO7Er-1" value="&lt;div&gt;&lt;font color=&quot;#000000&quot;&gt;Chunk 0&lt;/font&gt;&lt;/div&gt;&lt;div&gt;super&lt;br&gt;&lt;/div&gt;" style="rounded=1;whiteSpace=wrap;html=1;flipH=0;flipV=1;fontStyle=1;fontSize=21;fillColor=#f8cecc;strokeColor=#000000;gradientColor=#ea6b66;shadow=1;" parent="1" vertex="1">
          <mxGeometry x="752" y="80" width="120" height="60" as="geometry" />
        </mxCell>
        <mxCell id="N0DhFaUQ2dvQvEvrO7Er-5" value="" style="edgeStyle=orthogonalEdgeStyle;rounded=0;orthogonalLoop=1;jettySize=auto;html=1;exitX=0.5;exitY=0;exitDx=0;exitDy=0;entryX=1;entryY=0.5;entryDx=0;entryDy=0;strokeWidth=4;" parent="1" source="N0DhFaUQ2dvQvEvrO7Er-4" target="N0DhFaUQ2dvQvEvrO7Er-2" edge="1">
          <mxGeometry relative="1" as="geometry" />
        </mxCell>
        <mxCell id="N0DhFaUQ2dvQvEvrO7Er-7" value="" style="edgeStyle=orthogonalEdgeStyle;rounded=0;orthogonalLoop=1;jettySize=auto;html=1;exitX=0.5;exitY=0;exitDx=0;exitDy=0;entryX=0;entryY=0.5;entryDx=0;entryDy=0;strokeWidth=4;" parent="1" source="N0DhFaUQ2dvQvEvrO7Er-6" target="N0DhFaUQ2dvQvEvrO7Er-2" edge="1">
          <mxGeometry relative="1" as="geometry" />
        </mxCell>
        <mxCell id="N0DhFaUQ2dvQvEvrO7Er-2" value="&lt;div style=&quot;font-size: 21px;&quot;&gt;Chunk 1&lt;/div&gt;&lt;div style=&quot;font-size: 21px;&quot;&gt;base&lt;br&gt;&lt;/div&gt;" style="rounded=1;whiteSpace=wrap;html=1;flipH=0;flipV=1;fontStyle=1;fontSize=21;fillColor=#f8cecc;strokeColor=#000000;gradientColor=#EAA057;shadow=1;" parent="1" vertex="1">
          <mxGeometry x="752" y="180" width="120" height="60" as="geometry" />
        </mxCell>
        <mxCell id="N0DhFaUQ2dvQvEvrO7Er-28" value="" style="edgeStyle=orthogonalEdgeStyle;rounded=0;orthogonalLoop=1;jettySize=auto;html=1;strokeWidth=4;" parent="1" source="N0DhFaUQ2dvQvEvrO7Er-27" target="N0DhFaUQ2dvQvEvrO7Er-4" edge="1">
          <mxGeometry relative="1" as="geometry" />
        </mxCell>
        <mxCell id="N0DhFaUQ2dvQvEvrO7Er-30" value="" style="edgeStyle=orthogonalEdgeStyle;rounded=0;orthogonalLoop=1;jettySize=auto;html=1;exitX=0.5;exitY=0;exitDx=0;exitDy=0;strokeWidth=4;entryX=1;entryY=0.5;entryDx=0;entryDy=0;" parent="1" source="N0DhFaUQ2dvQvEvrO7Er-29" target="N0DhFaUQ2dvQvEvrO7Er-4" edge="1">
          <mxGeometry relative="1" as="geometry" />
        </mxCell>
        <mxCell id="N0DhFaUQ2dvQvEvrO7Er-4" value="&lt;div style=&quot;font-size: 21px;&quot;&gt;Chunk 8&lt;br style=&quot;font-size: 21px;&quot;&gt;&lt;/div&gt;&lt;div&gt;legacy&lt;br&gt;&lt;/div&gt;" style="rounded=1;whiteSpace=wrap;html=1;flipH=0;flipV=1;fontStyle=1;fontSize=21;fillColor=#FFFFCC;strokeColor=#000000;gradientColor=#EACA4B;glass=0;shadow=1;" parent="1" vertex="1">
          <mxGeometry x="873" y="260" width="120" height="60" as="geometry" />
        </mxCell>
        <mxCell id="N0DhFaUQ2dvQvEvrO7Er-6" value="&lt;div style=&quot;font-size: 21px;&quot;&gt;Chunk 2&lt;/div&gt;&lt;div style=&quot;font-size: 21px;&quot;&gt;season3&lt;br&gt;&lt;/div&gt;" style="rounded=1;whiteSpace=wrap;html=1;flipH=0;flipV=1;fontStyle=1;fontSize=21;fillColor=#dae8fc;strokeColor=#000000;gradientColor=#7ea6e0;shadow=1;" parent="1" vertex="1">
          <mxGeometry x="613" y="260" width="120" height="60" as="geometry" />
        </mxCell>
        <mxCell id="N0DhFaUQ2dvQvEvrO7Er-21" style="edgeStyle=orthogonalEdgeStyle;rounded=0;orthogonalLoop=1;jettySize=auto;html=1;entryX=0.5;entryY=1;entryDx=0;entryDy=0;strokeWidth=3;" parent="1" source="N0DhFaUQ2dvQvEvrO7Er-10" target="N0DhFaUQ2dvQvEvrO7Er-6" edge="1">
          <mxGeometry relative="1" as="geometry" />
        </mxCell>
        <mxCell id="N0DhFaUQ2dvQvEvrO7Er-10" value="&lt;div style=&quot;font-size: 21px;&quot;&gt;Chunk 7&lt;br style=&quot;font-size: 21px;&quot;&gt;&lt;/div&gt;&lt;div&gt;trapped&lt;br&gt;&lt;/div&gt;" style="rounded=1;whiteSpace=wrap;html=1;flipH=0;flipV=1;fontStyle=1;fontSize=21;shadow=1;fillColor=#dae8fc;gradientColor=#7ea6e0;strokeColor=#000000;" parent="1" vertex="1">
          <mxGeometry x="481" y="710" width="120" height="60" as="geometry" />
        </mxCell>
        <mxCell id="N0DhFaUQ2dvQvEvrO7Er-22" style="edgeStyle=orthogonalEdgeStyle;rounded=0;orthogonalLoop=1;jettySize=auto;html=1;entryX=0.5;entryY=1;entryDx=0;entryDy=0;strokeWidth=3;" parent="1" source="N0DhFaUQ2dvQvEvrO7Er-12" target="N0DhFaUQ2dvQvEvrO7Er-6" edge="1">
          <mxGeometry relative="1" as="geometry" />
        </mxCell>
        <mxCell id="N0DhFaUQ2dvQvEvrO7Er-12" value="&lt;div style=&quot;font-size: 21px;&quot;&gt;Chunk 6&lt;br style=&quot;font-size: 21px;&quot;&gt;&lt;/div&gt;&lt;div&gt;wet&lt;br&gt;&lt;/div&gt;" style="rounded=1;whiteSpace=wrap;html=1;flipH=0;flipV=1;fontStyle=1;fontSize=21;shadow=1;fillColor=#dae8fc;gradientColor=#7ea6e0;strokeColor=#000000;" parent="1" vertex="1">
          <mxGeometry x="481" y="640" width="120" height="60" as="geometry" />
        </mxCell>
        <mxCell id="N0DhFaUQ2dvQvEvrO7Er-23" style="edgeStyle=orthogonalEdgeStyle;rounded=0;orthogonalLoop=1;jettySize=auto;html=1;entryX=0.5;entryY=1;entryDx=0;entryDy=0;strokeWidth=3;" parent="1" source="N0DhFaUQ2dvQvEvrO7Er-14" target="N0DhFaUQ2dvQvEvrO7Er-6" edge="1">
          <mxGeometry relative="1" as="geometry" />
        </mxCell>
        <mxCell id="N0DhFaUQ2dvQvEvrO7Er-14" value="&lt;div style=&quot;font-size: 21px;&quot;&gt;Chunk 5&lt;br style=&quot;font-size: 21px;&quot;&gt;&lt;/div&gt;&lt;div&gt;elegant&lt;br&gt;&lt;/div&gt;" style="rounded=1;whiteSpace=wrap;html=1;flipH=0;flipV=1;fontStyle=1;fontSize=21;shadow=1;fillColor=#dae8fc;gradientColor=#7ea6e0;strokeColor=#000000;" parent="1" vertex="1">
          <mxGeometry x="481" y="570" width="120" height="60" as="geometry" />
        </mxCell>
        <mxCell id="N0DhFaUQ2dvQvEvrO7Er-24" style="edgeStyle=orthogonalEdgeStyle;rounded=0;orthogonalLoop=1;jettySize=auto;html=1;entryX=0.5;entryY=1;entryDx=0;entryDy=0;strokeWidth=3;" parent="1" source="N0DhFaUQ2dvQvEvrO7Er-16" target="N0DhFaUQ2dvQvEvrO7Er-6" edge="1">
          <mxGeometry relative="1" as="geometry" />
        </mxCell>
        <mxCell id="N0DhFaUQ2dvQvEvrO7Er-16" value="&lt;div style=&quot;font-size: 21px;&quot;&gt;Chunk 4&lt;br style=&quot;font-size: 21px;&quot;&gt;&lt;/div&gt;&lt;div&gt;edgy&lt;br&gt;&lt;/div&gt;" style="rounded=1;whiteSpace=wrap;html=1;flipH=0;flipV=1;fontStyle=1;fontSize=21;shadow=1;fillColor=#dae8fc;gradientColor=#7ea6e0;strokeColor=#000000;" parent="1" vertex="1">
          <mxGeometry x="481" y="500" width="120" height="60" as="geometry" />
        </mxCell>
        <mxCell id="N0DhFaUQ2dvQvEvrO7Er-25" style="edgeStyle=orthogonalEdgeStyle;rounded=0;orthogonalLoop=1;jettySize=auto;html=1;strokeWidth=3;" parent="1" source="N0DhFaUQ2dvQvEvrO7Er-18" target="N0DhFaUQ2dvQvEvrO7Er-6" edge="1">
          <mxGeometry relative="1" as="geometry" />
        </mxCell>
        <mxCell id="N0DhFaUQ2dvQvEvrO7Er-18" value="&lt;div style=&quot;font-size: 21px;&quot;&gt;Chunk 3&lt;br style=&quot;font-size: 21px;&quot;&gt;&lt;/div&gt;&lt;div&gt;ancestral&lt;br&gt;&lt;/div&gt;" style="rounded=1;whiteSpace=wrap;html=1;flipH=0;flipV=1;fontStyle=1;fontSize=21;shadow=1;fillColor=#dae8fc;gradientColor=#7ea6e0;strokeColor=#000000;" parent="1" vertex="1">
          <mxGeometry x="481" y="430" width="120" height="60" as="geometry" />
        </mxCell>
        <mxCell id="N0DhFaUQ2dvQvEvrO7Er-27" value="&lt;div style=&quot;font-size: 21px;&quot;&gt;Chunk 9&lt;br style=&quot;font-size: 21px;&quot;&gt;&lt;/div&gt;&lt;div&gt;season2&lt;br&gt;&lt;/div&gt;" style="rounded=1;whiteSpace=wrap;html=1;flipH=0;flipV=1;fontStyle=1;fontSize=21;fillColor=#d5e8d4;strokeColor=#000000;gradientColor=#97d077;shadow=1;" parent="1" vertex="1">
          <mxGeometry x="873" y="360" width="120" height="60" as="geometry" />
        </mxCell>
        <mxCell id="N0DhFaUQ2dvQvEvrO7Er-29" value="&lt;div style=&quot;font-size: 21px;&quot;&gt;Chunk 21&lt;br style=&quot;font-size: 21px;&quot;&gt;&lt;/div&gt;&lt;div&gt;season1&lt;br&gt;&lt;/div&gt;" style="rounded=1;whiteSpace=wrap;html=1;flipH=0;flipV=1;fontStyle=1;fontSize=21;fillColor=#e6d0de;strokeColor=#000000;shadow=1;gradientColor=#d5739d;" parent="1" vertex="1">
          <mxGeometry x="1033" y="360" width="120" height="60" as="geometry" />
        </mxCell>
        <mxCell id="N0DhFaUQ2dvQvEvrO7Er-49" style="edgeStyle=orthogonalEdgeStyle;rounded=0;orthogonalLoop=1;jettySize=auto;html=1;exitX=1;exitY=0.5;exitDx=0;exitDy=0;strokeWidth=3;" parent="1" source="N0DhFaUQ2dvQvEvrO7Er-31" target="N0DhFaUQ2dvQvEvrO7Er-27" edge="1">
          <mxGeometry relative="1" as="geometry" />
        </mxCell>
        <mxCell id="N0DhFaUQ2dvQvEvrO7Er-31" value="&lt;div style=&quot;font-size: 21px;&quot;&gt;Chunk 10&lt;br style=&quot;font-size: 21px;&quot;&gt;&lt;/div&gt;&lt;div&gt;opulent&lt;br&gt;&lt;/div&gt;" style="rounded=1;whiteSpace=wrap;html=1;flipH=0;flipV=1;fontStyle=1;fontSize=21;fillColor=#d5e8d4;strokeColor=#000000;shadow=1;gradientColor=#97d077;" parent="1" vertex="1">
          <mxGeometry x="773" y="430" width="120" height="60" as="geometry" />
        </mxCell>
        <mxCell id="N0DhFaUQ2dvQvEvrO7Er-50" style="edgeStyle=orthogonalEdgeStyle;rounded=0;orthogonalLoop=1;jettySize=auto;html=1;entryX=0.5;entryY=1;entryDx=0;entryDy=0;exitX=1;exitY=0.5;exitDx=0;exitDy=0;strokeWidth=3;" parent="1" source="N0DhFaUQ2dvQvEvrO7Er-32" target="N0DhFaUQ2dvQvEvrO7Er-27" edge="1">
          <mxGeometry relative="1" as="geometry" />
        </mxCell>
        <mxCell id="N0DhFaUQ2dvQvEvrO7Er-32" value="&lt;div style=&quot;font-size: 21px;&quot;&gt;Chunk 11&lt;br style=&quot;font-size: 21px;&quot;&gt;&lt;/div&gt;&lt;div&gt;caged&lt;br&gt;&lt;/div&gt;" style="rounded=1;whiteSpace=wrap;html=1;flipH=0;flipV=1;fontStyle=1;fontSize=21;shadow=1;fillColor=#d5e8d4;gradientColor=#97d077;strokeColor=#000000;" parent="1" vertex="1">
          <mxGeometry x="773" y="500" width="120" height="60" as="geometry" />
        </mxCell>
        <mxCell id="N0DhFaUQ2dvQvEvrO7Er-51" style="edgeStyle=orthogonalEdgeStyle;rounded=0;orthogonalLoop=1;jettySize=auto;html=1;entryX=0.5;entryY=1;entryDx=0;entryDy=0;exitX=1;exitY=0.5;exitDx=0;exitDy=0;strokeWidth=3;" parent="1" source="N0DhFaUQ2dvQvEvrO7Er-33" target="N0DhFaUQ2dvQvEvrO7Er-27" edge="1">
          <mxGeometry relative="1" as="geometry" />
        </mxCell>
        <mxCell id="N0DhFaUQ2dvQvEvrO7Er-33" value="&lt;div style=&quot;font-size: 21px;&quot;&gt;Chunk 12&lt;br style=&quot;font-size: 21px;&quot;&gt;&lt;/div&gt;&lt;div&gt;greedy&lt;br&gt;&lt;/div&gt;" style="rounded=1;whiteSpace=wrap;html=1;flipH=0;flipV=1;fontStyle=1;fontSize=21;shadow=1;fillColor=#d5e8d4;gradientColor=#97d077;strokeColor=#000000;" parent="1" vertex="1">
          <mxGeometry x="773" y="570" width="120" height="60" as="geometry" />
        </mxCell>
        <mxCell id="N0DhFaUQ2dvQvEvrO7Er-52" style="edgeStyle=orthogonalEdgeStyle;rounded=0;orthogonalLoop=1;jettySize=auto;html=1;entryX=0.5;entryY=1;entryDx=0;entryDy=0;exitX=1;exitY=0.5;exitDx=0;exitDy=0;strokeWidth=3;" parent="1" source="N0DhFaUQ2dvQvEvrO7Er-34" target="N0DhFaUQ2dvQvEvrO7Er-27" edge="1">
          <mxGeometry relative="1" as="geometry" />
        </mxCell>
        <mxCell id="N0DhFaUQ2dvQvEvrO7Er-34" value="&lt;div style=&quot;font-size: 21px;&quot;&gt;Chunk 13&lt;br style=&quot;font-size: 21px;&quot;&gt;&lt;/div&gt;&lt;div&gt;salty&lt;br&gt;&lt;/div&gt;" style="rounded=1;whiteSpace=wrap;html=1;flipH=0;flipV=1;fontStyle=1;fontSize=21;shadow=1;fillColor=#d5e8d4;gradientColor=#97d077;strokeColor=#000000;" parent="1" vertex="1">
          <mxGeometry x="773" y="640" width="120" height="60" as="geometry" />
        </mxCell>
        <mxCell id="N0DhFaUQ2dvQvEvrO7Er-53" style="edgeStyle=orthogonalEdgeStyle;rounded=0;orthogonalLoop=1;jettySize=auto;html=1;entryX=0.5;entryY=1;entryDx=0;entryDy=0;exitX=1;exitY=0.5;exitDx=0;exitDy=0;strokeWidth=3;" parent="1" source="N0DhFaUQ2dvQvEvrO7Er-35" target="N0DhFaUQ2dvQvEvrO7Er-27" edge="1">
          <mxGeometry relative="1" as="geometry" />
        </mxCell>
        <mxCell id="N0DhFaUQ2dvQvEvrO7Er-35" value="&lt;div style=&quot;font-size: 21px;&quot;&gt;Chunk 14&lt;br style=&quot;font-size: 21px;&quot;&gt;&lt;/div&gt;&lt;div&gt;hawk&lt;br&gt;&lt;/div&gt;" style="rounded=1;whiteSpace=wrap;html=1;flipH=0;flipV=1;fontStyle=1;fontSize=21;shadow=1;fillColor=#d5e8d4;gradientColor=#97d077;strokeColor=#000000;" parent="1" vertex="1">
          <mxGeometry x="773" y="710" width="120" height="60" as="geometry" />
        </mxCell>
        <mxCell id="N0DhFaUQ2dvQvEvrO7Er-54" style="edgeStyle=orthogonalEdgeStyle;rounded=0;orthogonalLoop=1;jettySize=auto;html=1;entryX=0.5;entryY=1;entryDx=0;entryDy=0;exitX=1;exitY=0.5;exitDx=0;exitDy=0;strokeWidth=3;" parent="1" source="N0DhFaUQ2dvQvEvrO7Er-36" target="N0DhFaUQ2dvQvEvrO7Er-27" edge="1">
          <mxGeometry relative="1" as="geometry" />
        </mxCell>
        <mxCell id="N0DhFaUQ2dvQvEvrO7Er-36" value="&lt;div style=&quot;font-size: 21px;&quot;&gt;Chunk 15&lt;br style=&quot;font-size: 21px;&quot;&gt;&lt;/div&gt;&lt;div&gt;theark&lt;br&gt;&lt;/div&gt;" style="rounded=1;whiteSpace=wrap;html=1;flipH=0;flipV=1;fontStyle=1;fontSize=21;shadow=1;fillColor=#d5e8d4;gradientColor=#97d077;strokeColor=#000000;" parent="1" vertex="1">
          <mxGeometry x="773" y="780" width="120" height="60" as="geometry" />
        </mxCell>
        <mxCell id="N0DhFaUQ2dvQvEvrO7Er-55" style="edgeStyle=orthogonalEdgeStyle;rounded=0;orthogonalLoop=1;jettySize=auto;html=1;entryX=0.5;entryY=1;entryDx=0;entryDy=0;exitX=1;exitY=0.5;exitDx=0;exitDy=0;strokeWidth=3;" parent="1" source="N0DhFaUQ2dvQvEvrO7Er-37" target="N0DhFaUQ2dvQvEvrO7Er-27" edge="1">
          <mxGeometry relative="1" as="geometry" />
        </mxCell>
        <mxCell id="N0DhFaUQ2dvQvEvrO7Er-37" value="&lt;div style=&quot;font-size: 21px;&quot;&gt;Chunk 16&lt;br style=&quot;font-size: 21px;&quot;&gt;&lt;/div&gt;&lt;div&gt;skunk&lt;br&gt;&lt;/div&gt;" style="rounded=1;whiteSpace=wrap;html=1;flipH=0;flipV=1;fontStyle=1;fontSize=21;shadow=1;fillColor=#d5e8d4;gradientColor=#97d077;strokeColor=#000000;" parent="1" vertex="1">
          <mxGeometry x="773" y="850" width="120" height="60" as="geometry" />
        </mxCell>
        <mxCell id="N0DhFaUQ2dvQvEvrO7Er-56" style="edgeStyle=orthogonalEdgeStyle;rounded=0;orthogonalLoop=1;jettySize=auto;html=1;entryX=0.5;entryY=1;entryDx=0;entryDy=0;exitX=1;exitY=0.5;exitDx=0;exitDy=0;strokeWidth=3;" parent="1" source="N0DhFaUQ2dvQvEvrO7Er-38" target="N0DhFaUQ2dvQvEvrO7Er-27" edge="1">
          <mxGeometry relative="1" as="geometry" />
        </mxCell>
        <mxCell id="N0DhFaUQ2dvQvEvrO7Er-38" value="&lt;div style=&quot;font-size: 21px;&quot;&gt;Chunk 17&lt;br style=&quot;font-size: 21px;&quot;&gt;&lt;/div&gt;&lt;div&gt;mongoose&lt;br&gt;&lt;/div&gt;" style="rounded=1;whiteSpace=wrap;html=1;flipH=0;flipV=1;fontStyle=1;fontSize=21;shadow=1;fillColor=#d5e8d4;gradientColor=#97d077;strokeColor=#000000;" parent="1" vertex="1">
          <mxGeometry x="773" y="920" width="120" height="60" as="geometry" />
        </mxCell>
        <mxCell id="N0DhFaUQ2dvQvEvrO7Er-57" style="edgeStyle=orthogonalEdgeStyle;rounded=0;orthogonalLoop=1;jettySize=auto;html=1;entryX=0.5;entryY=1;entryDx=0;entryDy=0;exitX=1;exitY=0.5;exitDx=0;exitDy=0;strokeWidth=3;" parent="1" source="N0DhFaUQ2dvQvEvrO7Er-39" target="N0DhFaUQ2dvQvEvrO7Er-27" edge="1">
          <mxGeometry relative="1" as="geometry" />
        </mxCell>
        <mxCell id="N0DhFaUQ2dvQvEvrO7Er-39" value="&lt;div style=&quot;font-size: 21px;&quot;&gt;Chunk 18&lt;br style=&quot;font-size: 21px;&quot;&gt;&lt;/div&gt;&lt;div&gt;colombia&lt;br&gt;&lt;/div&gt;" style="rounded=1;whiteSpace=wrap;html=1;flipH=0;flipV=1;fontStyle=1;fontSize=21;shadow=1;fillColor=#d5e8d4;gradientColor=#97d077;strokeColor=#000000;" parent="1" vertex="1">
          <mxGeometry x="773" y="990" width="120" height="60" as="geometry" />
        </mxCell>
        <mxCell id="N0DhFaUQ2dvQvEvrO7Er-58" style="edgeStyle=orthogonalEdgeStyle;rounded=0;orthogonalLoop=1;jettySize=auto;html=1;entryX=0.5;entryY=1;entryDx=0;entryDy=0;exitX=1;exitY=0.5;exitDx=0;exitDy=0;strokeWidth=3;" parent="1" source="N0DhFaUQ2dvQvEvrO7Er-40" target="N0DhFaUQ2dvQvEvrO7Er-27" edge="1">
          <mxGeometry relative="1" as="geometry" />
        </mxCell>
        <mxCell id="N0DhFaUQ2dvQvEvrO7Er-40" value="&lt;div style=&quot;font-size: 21px;&quot;&gt;Chunk 19&lt;br style=&quot;font-size: 21px;&quot;&gt;&lt;/div&gt;&lt;div&gt;miami&lt;br&gt;&lt;/div&gt;" style="rounded=1;whiteSpace=wrap;html=1;flipH=0;flipV=1;fontSize=21;fontStyle=1;shadow=1;fillColor=#d5e8d4;gradientColor=#97d077;strokeColor=#000000;" parent="1" vertex="1">
          <mxGeometry x="773" y="1060" width="120" height="60" as="geometry" />
        </mxCell>
        <mxCell id="N0DhFaUQ2dvQvEvrO7Er-59" style="edgeStyle=orthogonalEdgeStyle;rounded=0;orthogonalLoop=1;jettySize=auto;html=1;entryX=0.5;entryY=1;entryDx=0;entryDy=0;exitX=1;exitY=0.5;exitDx=0;exitDy=0;strokeWidth=3;" parent="1" source="N0DhFaUQ2dvQvEvrO7Er-41" target="N0DhFaUQ2dvQvEvrO7Er-27" edge="1">
          <mxGeometry relative="1" as="geometry" />
        </mxCell>
        <mxCell id="N0DhFaUQ2dvQvEvrO7Er-41" value="&lt;div style=&quot;font-size: 21px;&quot;&gt;Chunk 20&lt;br style=&quot;font-size: 21px;&quot;&gt;&lt;/div&gt;&lt;div&gt;sheep&lt;/div&gt;" style="rounded=1;whiteSpace=wrap;html=1;flipH=0;flipV=1;fontStyle=1;fontSize=21;shadow=1;fillColor=#d5e8d4;gradientColor=#97d077;strokeColor=#000000;" parent="1" vertex="1">
          <mxGeometry x="773" y="1130" width="120" height="60" as="geometry" />
        </mxCell>
        <mxCell id="N0DhFaUQ2dvQvEvrO7Er-60" style="edgeStyle=orthogonalEdgeStyle;rounded=0;orthogonalLoop=1;jettySize=auto;html=1;exitX=0;exitY=0.5;exitDx=0;exitDy=0;strokeWidth=3;" parent="1" source="N0DhFaUQ2dvQvEvrO7Er-43" target="N0DhFaUQ2dvQvEvrO7Er-29" edge="1">
          <mxGeometry relative="1" as="geometry" />
        </mxCell>
        <mxCell id="N0DhFaUQ2dvQvEvrO7Er-43" value="&lt;div style=&quot;font-size: 21px;&quot;&gt;Chunk 22&lt;br style=&quot;font-size: 21px;&quot;&gt;&lt;/div&gt;&lt;div&gt;hokkaido&lt;br&gt;&lt;/div&gt;" style="rounded=1;whiteSpace=wrap;html=1;flipH=0;flipV=1;fontStyle=1;fontSize=21;shadow=1;fillColor=#e6d0de;gradientColor=#d5739d;strokeColor=#000000;" parent="1" vertex="1">
          <mxGeometry x="1152" y="430" width="120" height="60" as="geometry" />
        </mxCell>
        <mxCell id="N0DhFaUQ2dvQvEvrO7Er-61" style="edgeStyle=orthogonalEdgeStyle;rounded=0;orthogonalLoop=1;jettySize=auto;html=1;entryX=0.5;entryY=1;entryDx=0;entryDy=0;exitX=0;exitY=0.5;exitDx=0;exitDy=0;strokeWidth=3;" parent="1" source="N0DhFaUQ2dvQvEvrO7Er-44" target="N0DhFaUQ2dvQvEvrO7Er-29" edge="1">
          <mxGeometry relative="1" as="geometry" />
        </mxCell>
        <mxCell id="N0DhFaUQ2dvQvEvrO7Er-44" value="&lt;div style=&quot;font-size: 21px;&quot;&gt;Chunk 23&lt;br style=&quot;font-size: 21px;&quot;&gt;&lt;/div&gt;&lt;div&gt;colorado&lt;br&gt;&lt;/div&gt;" style="rounded=1;whiteSpace=wrap;html=1;flipH=0;flipV=1;fontStyle=1;fontSize=21;shadow=1;fillColor=#e6d0de;gradientColor=#d5739d;strokeColor=#000000;" parent="1" vertex="1">
          <mxGeometry x="1152" y="500" width="120" height="60" as="geometry" />
        </mxCell>
        <mxCell id="N0DhFaUQ2dvQvEvrO7Er-62" style="edgeStyle=orthogonalEdgeStyle;rounded=0;orthogonalLoop=1;jettySize=auto;html=1;entryX=0.5;entryY=1;entryDx=0;entryDy=0;exitX=0;exitY=0.5;exitDx=0;exitDy=0;strokeWidth=3;" parent="1" source="N0DhFaUQ2dvQvEvrO7Er-45" target="N0DhFaUQ2dvQvEvrO7Er-29" edge="1">
          <mxGeometry relative="1" as="geometry" />
        </mxCell>
        <mxCell id="N0DhFaUQ2dvQvEvrO7Er-45" value="&lt;div style=&quot;font-size: 21px;&quot;&gt;Chunk 24&lt;br style=&quot;font-size: 21px;&quot;&gt;&lt;/div&gt;&lt;div&gt;bangkok&lt;br&gt;&lt;/div&gt;" style="rounded=1;whiteSpace=wrap;html=1;flipH=0;flipV=1;fontStyle=1;fontSize=21;shadow=1;fillColor=#e6d0de;gradientColor=#d5739d;strokeColor=#000000;" parent="1" vertex="1">
          <mxGeometry x="1152" y="570" width="120" height="60" as="geometry" />
        </mxCell>
        <mxCell id="N0DhFaUQ2dvQvEvrO7Er-63" style="edgeStyle=orthogonalEdgeStyle;rounded=0;orthogonalLoop=1;jettySize=auto;html=1;entryX=0.5;entryY=1;entryDx=0;entryDy=0;exitX=0;exitY=0.5;exitDx=0;exitDy=0;strokeWidth=3;" parent="1" source="N0DhFaUQ2dvQvEvrO7Er-46" target="N0DhFaUQ2dvQvEvrO7Er-29" edge="1">
          <mxGeometry relative="1" as="geometry" />
        </mxCell>
        <mxCell id="N0DhFaUQ2dvQvEvrO7Er-46" value="&lt;div style=&quot;font-size: 21px;&quot;&gt;Chunk 25&lt;br style=&quot;font-size: 21px;&quot;&gt;&lt;/div&gt;&lt;div&gt;marrakesh&lt;br&gt;&lt;/div&gt;" style="rounded=1;whiteSpace=wrap;html=1;flipH=0;flipV=1;fontStyle=1;fontSize=21;shadow=1;fillColor=#e6d0de;gradientColor=#d5739d;strokeColor=#000000;" parent="1" vertex="1">
          <mxGeometry x="1152" y="640" width="120" height="60" as="geometry" />
        </mxCell>
        <mxCell id="N0DhFaUQ2dvQvEvrO7Er-64" style="edgeStyle=orthogonalEdgeStyle;rounded=0;orthogonalLoop=1;jettySize=auto;html=1;entryX=0.5;entryY=1;entryDx=0;entryDy=0;exitX=0;exitY=0.5;exitDx=0;exitDy=0;strokeWidth=3;" parent="1" source="N0DhFaUQ2dvQvEvrO7Er-47" target="N0DhFaUQ2dvQvEvrO7Er-29" edge="1">
          <mxGeometry relative="1" as="geometry" />
        </mxCell>
        <mxCell id="N0DhFaUQ2dvQvEvrO7Er-47" value="&lt;div style=&quot;font-size: 21px;&quot;&gt;Chunk 26&lt;br style=&quot;font-size: 21px;&quot;&gt;&lt;/div&gt;&lt;div&gt;coastaltown&lt;br&gt;&lt;/div&gt;" style="rounded=1;whiteSpace=wrap;html=1;flipH=0;flipV=1;fontStyle=1;fontSize=21;shadow=1;fillColor=#e6d0de;gradientColor=#d5739d;strokeColor=#000000;" parent="1" vertex="1">
          <mxGeometry x="1152" y="710" width="120" height="60" as="geometry" />
        </mxCell>
        <mxCell id="N0DhFaUQ2dvQvEvrO7Er-65" style="edgeStyle=orthogonalEdgeStyle;rounded=0;orthogonalLoop=1;jettySize=auto;html=1;entryX=0.5;entryY=1;entryDx=0;entryDy=0;exitX=0;exitY=0.5;exitDx=0;exitDy=0;strokeWidth=3;" parent="1" source="N0DhFaUQ2dvQvEvrO7Er-48" target="N0DhFaUQ2dvQvEvrO7Er-29" edge="1">
          <mxGeometry relative="1" as="geometry" />
        </mxCell>
        <mxCell id="N0DhFaUQ2dvQvEvrO7Er-48" value="&lt;div style=&quot;font-size: 21px;&quot;&gt;Chunk 27&lt;br style=&quot;font-size: 21px;&quot;&gt;&lt;/div&gt;&lt;div&gt;paris&lt;br&gt;&lt;/div&gt;" style="rounded=1;whiteSpace=wrap;html=1;flipH=0;flipV=1;fontStyle=1;fontSize=21;shadow=1;fillColor=#e6d0de;gradientColor=#d5739d;strokeColor=#000000;" parent="1" vertex="1">
          <mxGeometry x="1152" y="780" width="120" height="60" as="geometry" />
        </mxCell>
        <mxCell id="N0DhFaUQ2dvQvEvrO7Er-74" value="&lt;p style=&quot;&quot; data-changed=&quot;false&quot; data-from-init=&quot;true&quot; data-paragraphid=&quot;3&quot; class=&quot;root-block-node&quot;&gt;Note that while chunk0 can be accessed &lt;i&gt;from&lt;/i&gt; anywhere, it is a one-way street; chunks higher in the hierarchy cannot access chunks lower in the hierarchy. The lower the chunk &lt;i&gt;number&lt;/i&gt;, the higher it is in the chunk &lt;i&gt;hierarchy&lt;/i&gt;.&lt;br&gt;&lt;/p&gt;" style="text;whiteSpace=wrap;html=1;fontSize=25;" parent="1" vertex="1">
          <mxGeometry x="960" y="850" width="300" height="250" as="geometry" />
        </mxCell>
        <mxCell id="N0DhFaUQ2dvQvEvrO7Er-75" value="Credit: Oakheart &amp;amp; invalid " style="text;whiteSpace=wrap;html=1;fontSize=25;align=right;verticalAlign=middle;" parent="1" vertex="1">
          <mxGeometry x="974" y="20" width="298" height="50" as="geometry" />
        </mxCell>
        <mxCell id="8N7Vn7bXFM0D_MzjP88z-33" style="edgeStyle=orthogonalEdgeStyle;rounded=0;orthogonalLoop=1;jettySize=auto;html=1;strokeWidth=3;entryX=0.5;entryY=1;entryDx=0;entryDy=0;" parent="1" source="8N7Vn7bXFM0D_MzjP88z-34" target="N0DhFaUQ2dvQvEvrO7Er-6" edge="1">
          <mxGeometry relative="1" as="geometry">
            <mxPoint x="601" y="1070.0588235294117" as="sourcePoint" />
            <mxPoint x="673" y="330" as="targetPoint" />
          </mxGeometry>
        </mxCell>
        <mxCell id="8N7Vn7bXFM0D_MzjP88z-34" value="&lt;div style=&quot;font-size: 21px;&quot;&gt;Chunk 28&lt;/div&gt;&lt;div&gt;dugong&lt;br&gt;&lt;/div&gt;" style="rounded=1;whiteSpace=wrap;html=1;flipH=0;flipV=1;fontStyle=1;fontSize=21;shadow=1;fillColor=#dae8fc;gradientColor=#7ea6e0;strokeColor=#000000;" parent="1" vertex="1">
          <mxGeometry x="481" y="780" width="120" height="60" as="geometry" />
        </mxCell>
        <mxCell id="egLnhbrrIV5r9yWpWKBw-17" value="&lt;div style=&quot;font-size: 21px;&quot;&gt;Chunk 29&lt;/div&gt;&lt;div&gt;snug&lt;br&gt;&lt;/div&gt;" style="rounded=1;whiteSpace=wrap;html=1;flipH=0;flipV=1;fontStyle=1;fontSize=21;shadow=1;fillColor=#dae8fc;gradientColor=#7ea6e0;strokeColor=#000000;" parent="1" vertex="1">
          <mxGeometry x="481" y="850" width="120" height="60" as="geometry" />
        </mxCell>
        <mxCell id="egLnhbrrIV5r9yWpWKBw-19" style="edgeStyle=orthogonalEdgeStyle;rounded=0;orthogonalLoop=1;jettySize=auto;html=1;strokeWidth=3;entryX=0.5;entryY=1;entryDx=0;entryDy=0;" parent="1" source="egLnhbrrIV5r9yWpWKBw-17" edge="1">
          <mxGeometry relative="1" as="geometry">
            <mxPoint x="600" y="1140" as="sourcePoint" />
            <mxPoint x="673" y="320" as="targetPoint" />
          </mxGeometry>
        </mxCell>
      </root>
    </mxGraphModel>
  </diagram>
</mxfile>
